<?xml version="1.0" standalone="no"?>
<!DOCTYPE svg PUBLIC "-//W3C//DTD SVG 20010904//EN"
 "http://www.w3.org/TR/2001/REC-SVG-20010904/DTD/svg10.dtd">
<svg version="1.0" xmlns="http://www.w3.org/2000/svg"
 width="2567.000000pt" height="1989.000000pt" viewBox="0 0 2567.000000 1989.000000"
 preserveAspectRatio="xMidYMid meet">

<g transform="translate(0.000000,1989.000000) scale(0.100000,-0.100000)"
fill="#000000" stroke="none">
<path d="M21086 17303 c-12 -12 -5 -20 89 -99 52 -43 93 -82 92 -86 -3 -9
-810 -758 -824 -765 -7 -3 -46 25 -88 61 -69 60 -95 77 -95 60 0 -3 88 -92
197 -197 191 -187 398 -404 477 -500 l39 -48 -43 -44 -44 -45 -70 78 c-125
138 -338 351 -484 485 -173 158 -180 163 -195 148 -9 -9 6 -28 63 -80 l75 -69
-20 -22 c-31 -35 -905 -846 -1300 -1206 -359 -328 -846 -763 -972 -869 -40
-33 -72 -64 -72 -68 -1 -9 219 -399 504 -892 114 -198 236 -409 271 -470 35
-60 68 -110 73 -110 5 0 52 50 103 110 197 231 2161 2594 2231 2682 7 9 -6 33
-45 80 -30 38 -69 87 -88 111 l-33 43 44 45 44 45 44 -48 c24 -26 63 -74 86
-106 l42 -57 372 449 c211 256 371 458 371 469 0 27 -48 116 -101 188 -124
170 -412 472 -604 632 -108 90 -129 105 -139 95z"/>
<path d="M20235 16924 c-143 -118 -261 -218 -262 -222 -1 -4 9 -15 23 -26 l26
-19 242 242 c132 132 239 241 236 240 -3 0 -122 -97 -265 -215z"/>
<path d="M19699 16482 c-379 -312 -2134 -1766 -2162 -1792 -8 -7 117 -235 135
-246 9 -6 52 29 528 434 244 208 355 314 997 955 694 693 722 722 705 740 -39
43 -42 42 -203 -91z"/>
<path d="M14565 11942 c-762 -747 -818 -805 -811 -830 4 -12 37 -42 74 -69 62
-44 147 -115 350 -293 73 -64 85 -71 98 -59 12 13 -2 30 -117 134 -73 66 -139
126 -148 133 -14 11 64 92 603 627 l619 614 -61 108 c-34 59 -67 116 -74 126
-13 17 -58 -25 -533 -491z"/>
<path d="M17028 12321 c9 -14 19 -28 22 -31 3 -3 6 -10 7 -16 3 -17 499 -877
559 -969 18 -27 144 -243 280 -480 168 -291 247 -438 245 -455 -1 -14 -73
-601 -159 -1305 l-158 -1280 -2014 -3 -2015 -2 165 166 c259 260 612 550 1318
1082 67 51 122 97 122 103 0 16 -50 85 -154 209 l-96 115 76 75 76 75 79 -85
c44 -47 98 -112 122 -144 52 -74 82 -106 99 -106 7 0 200 187 428 415 l415
415 -21 38 c-102 184 -755 1306 -871 1499 l-49 82 -517 -517 -517 -517 171
-170 c93 -94 175 -178 181 -189 8 -15 5 -24 -18 -47 l-29 -28 -195 184 c-107
102 -200 185 -207 185 -6 0 -15 -5 -18 -10 -4 -6 146 -167 333 -358 186 -191
387 -399 446 -462 l107 -114 -76 -76 -76 -77 -211 219 c-186 193 -518 519
-536 526 -4 1 -519 -510 -1145 -1136 l-1138 -1138 112 -118 112 -117 -26 -26
-26 -26 -106 99 c-58 54 -139 129 -179 166 l-73 67 -49 -50 -49 -49 221 -223
c122 -122 267 -271 323 -331 l101 -110 -25 -26 -25 -26 -264 263 c-146 145
-271 263 -278 263 -8 0 -43 -29 -78 -65 l-64 -65 33 -34 c29 -30 32 -37 21
-51 -12 -14 7 -37 152 -183 l166 -167 -594 -665 c-327 -366 -605 -675 -617
-687 -15 -16 -68 -35 -167 -62 -80 -22 -199 -58 -265 -80 -170 -56 -204 -63
-243 -56 l-35 7 228 228 228 228 35 -15 c49 -20 98 -9 139 32 28 28 33 40 33
79 0 26 -7 60 -15 76 -41 80 -172 79 -219 0 -18 -31 -21 -101 -7 -129 8 -14
-29 -57 -220 -247 l-229 -229 0 52 c0 33 16 101 43 190 49 155 60 193 53 193
-10 0 -30 -47 -78 -189 -44 -129 -49 -153 -45 -207 l5 -62 -297 -296 c-263
-263 -299 -295 -321 -290 -24 6 -25 6 -5 -10 20 -16 19 -17 -40 -70 -33 -30
-63 -52 -67 -50 -17 11 -7 52 18 75 93 87 283 476 370 757 l23 75 -23 -24
c-13 -13 -47 -85 -75 -159 -93 -241 -163 -391 -180 -385 -26 8 -1683 163
-1871 175 -274 17 -431 45 -520 90 -76 40 -153 140 -246 320 -54 106 -112 171
-169 190 -54 18 -155 8 -202 -20 -20 -12 -142 -105 -271 -207 -128 -102 -235
-184 -237 -182 -2 2 -39 81 -83 175 -87 187 -170 343 -238 446 -141 213 -346
279 -644 207 -295 -70 -907 -301 -1231 -465 -39 -19 -73 -34 -75 -32 -2 3 53
277 121 611 69 334 125 623 125 643 0 130 -99 227 -230 227 -80 0 -140 -31
-196 -102 l-44 -56 0 -988 0 -989 43 25 c233 136 594 311 882 427 287 115 709
250 785 250 57 0 74 -27 300 -486 l218 -442 48 -28 c42 -25 60 -29 119 -28 51
0 82 6 115 22 25 12 155 110 290 217 135 107 247 195 250 195 3 0 25 -32 50
-71 127 -201 288 -308 537 -358 56 -12 200 -30 320 -41 120 -12 616 -59 1102
-105 486 -47 908 -85 938 -85 64 0 108 17 145 56 27 29 58 101 58 134 0 19
132 85 334 167 61 24 122 56 136 69 21 21 12 19 -90 -20 -201 -77 -369 -155
-477 -221 -39 -24 -43 -24 -43 -8 0 11 -5 24 -12 31 -10 10 51 76 287 312 273
273 301 299 325 292 48 -13 111 -3 248 42 164 53 392 119 397 114 2 -1 -81
-97 -185 -213 -103 -115 -186 -211 -185 -213 2 -2 106 31 231 72 126 41 274
89 329 106 l100 30 133 174 132 174 145 27 c80 15 148 31 151 36 7 12 13 12
-133 -11 -69 -11 -127 -19 -129 -17 -2 2 176 239 397 528 220 288 407 533 416
544 14 19 15 19 54 -25 21 -25 41 -52 44 -62 4 -10 -82 -143 -245 -380 l-251
-363 2666 -3 c1467 -1 3863 -1 5325 0 l2659 3 -64 110 c-35 61 -404 700 -820
1420 -416 721 -995 1722 -1287 2225 l-530 915 -1291 710 c-710 391 -1324 729
-1363 751 -69 39 -72 40 -56 15z m1147 -1981 c9 -16 13 -30 11 -30 -3 0 -12
14 -21 30 -9 17 -13 30 -11 30 3 0 12 -13 21 -30z m60 -105 c16 -27 24 -45 18
-40 -6 6 -23 33 -38 60 -16 28 -24 46 -18 40 6 -5 23 -32 38 -60z m50 -85 c9
-16 13 -30 11 -30 -3 0 -12 14 -21 30 -9 17 -13 30 -11 30 3 0 12 -13 21 -30z
m35 -60 c6 -11 8 -20 6 -20 -3 0 -10 9 -16 20 -6 11 -8 20 -6 20 3 0 10 -9 16
-20z m40 -70 c6 -11 8 -20 6 -20 -3 0 -10 9 -16 20 -6 11 -8 20 -6 20 3 0 10
-9 16 -20z m35 -60 c9 -16 13 -30 11 -30 -3 0 -12 14 -21 30 -9 17 -13 30 -11
30 3 0 12 -13 21 -30z m35 -60 c6 -11 8 -20 6 -20 -3 0 -10 9 -16 20 -6 11 -8
20 -6 20 3 0 10 -9 16 -20z m40 -70 c6 -11 8 -20 6 -20 -3 0 -10 9 -16 20 -6
11 -8 20 -6 20 3 0 10 -9 16 -20z m40 -70 c6 -11 8 -20 6 -20 -3 0 -10 9 -16
20 -6 11 -8 20 -6 20 3 0 10 -9 16 -20z m70 -120 c6 -11 8 -20 6 -20 -3 0 -10
9 -16 20 -6 11 -8 20 -6 20 3 0 10 -9 16 -20z m40 -70 c6 -11 8 -20 6 -20 -3
0 -10 9 -16 20 -6 11 -8 20 -6 20 3 0 10 -9 16 -20z m110 -190 c6 -11 8 -20 6
-20 -3 0 -10 9 -16 20 -6 11 -8 20 -6 20 3 0 10 -9 16 -20z m-6149 -2297 l31
-45 -28 -29 -29 -28 -65 85 c-36 48 -69 92 -75 100 -7 9 -2 21 15 39 l25 27
47 -52 c27 -28 62 -72 79 -97z m-3061 -2129 c-8 -15 -34 -40 -57 -57 -36 -26
-45 -28 -58 -17 -14 12 -9 20 42 72 51 52 59 56 73 43 13 -14 13 -18 0 -41z"/>
<path d="M13540 10823 c-123 -167 -504 -659 -648 -838 -216 -267 -301 -362
-498 -555 -373 -364 -681 -634 -917 -802 -71 -50 -135 -102 -144 -115 -24 -36
-6 -80 92 -228 46 -70 87 -136 90 -146 4 -11 11 -19 17 -19 6 0 45 -25 86 -56
l74 -56 52 51 51 52 -70 67 c-38 37 -92 87 -118 111 -27 24 -45 46 -40 50 4 4
51 39 103 78 238 177 574 477 921 823 310 309 495 529 1028 1228 106 139 197
252 202 250 4 -2 49 -38 99 -82 50 -43 94 -75 98 -71 16 16 -363 345 -398 345
-9 0 -45 -39 -80 -87z"/>
<path d="M4064 10864 c-54 -26 -345 -263 -521 -424 l-63 -57 0 -319 0 -319 98
98 c53 53 100 97 104 97 8 0 -53 -180 -141 -419 l-61 -164 0 -576 1 -576 31
60 c100 194 311 687 453 1060 163 428 415 1222 415 1307 0 126 -116 248 -235
248 -27 0 -64 -7 -81 -16z"/>
<path d="M11387 7992 c-37 -37 -67 -73 -67 -80 0 -18 44 -81 69 -98 12 -9 26
-12 31 -9 6 4 9 3 8 -2 -2 -4 19 -28 45 -52 43 -40 51 -43 68 -33 17 11 25 9
58 -17 l38 -30 67 68 67 68 -88 83 c-93 88 -197 170 -217 170 -6 0 -42 -30
-79 -68z"/>
<path d="M9386 7758 c-8 -13 -216 -372 -461 -798 -246 -426 -449 -778 -452
-783 -2 -4 307 -6 688 -5 l693 3 18 60 c10 33 59 194 108 358 49 165 96 309
104 322 8 13 284 208 613 435 329 227 602 417 607 421 6 5 -411 9 -947 9
l-957 0 -14 -22z"/>
<path d="M22599 2380 c-257 -41 -465 -140 -594 -283 -143 -159 -207 -411 -145
-572 32 -83 127 -176 237 -233 97 -50 277 -111 418 -142 321 -69 431 -111 514
-200 87 -92 80 -276 -17 -426 -128 -196 -377 -317 -684 -331 -303 -14 -459 55
-638 284 -22 29 -47 53 -55 53 -26 0 -120 -84 -123 -111 -6 -53 121 -198 244
-279 173 -113 442 -156 722 -114 333 49 591 217 716 466 64 128 90 237 84 350
-7 109 -35 171 -110 245 -106 104 -221 152 -605 252 -291 76 -374 112 -459
196 -60 61 -82 132 -67 222 28 162 129 287 298 368 196 93 461 119 674 64 95
-24 159 -63 250 -150 87 -83 107 -87 169 -29 63 59 59 78 -36 170 -90 87 -199
149 -319 181 -61 17 -115 22 -248 25 -93 1 -195 -1 -226 -6z"/>
<path d="M1928 2359 c-10 -5 -22 -26 -27 -47 -34 -126 -472 -2218 -469 -2240
l3 -27 806 -3 c633 -2 809 1 822 10 10 8 22 39 29 77 11 58 10 64 -7 77 -16
12 -140 14 -728 14 l-709 0 6 23 c3 13 44 203 90 423 47 219 90 423 96 452
l12 52 572 0 c651 0 595 -8 620 88 24 89 72 82 -580 82 -543 0 -575 1 -570 18
2 9 42 200 87 424 l82 408 716 2 716 3 11 35 c6 19 14 51 18 72 13 73 66 68
-802 68 -501 -1 -783 -4 -794 -11z"/>
<path d="M3908 2348 c-20 -20 -57 -181 -262 -1149 -132 -619 -236 -1133 -233
-1142 6 -16 66 -17 722 -17 819 0 743 -10 764 100 12 58 11 65 -5 77 -14 10
-144 13 -636 13 -488 0 -618 3 -618 13 0 6 99 480 221 1051 159 746 219 1044
212 1055 -7 11 -29 17 -77 19 -58 3 -69 0 -88 -20z"/>
<path d="M15471 2351 c-11 -11 -25 -45 -31 -77 -11 -52 -10 -59 6 -71 14 -10
98 -13 392 -13 295 0 373 -3 369 -12 -16 -45 -448 -2110 -444 -2123 5 -12 23
-15 81 -15 67 0 77 2 90 22 8 13 115 496 237 1075 l224 1052 382 3 c274 2 385
6 394 15 20 20 42 133 28 149 -10 12 -144 14 -860 14 -822 0 -850 -1 -868 -19z"/>
<path d="M17573 2353 c-19 -15 -56 -181 -262 -1152 -183 -860 -238 -1137 -230
-1147 17 -21 133 -19 150 2 8 9 55 204 104 433 l90 416 455 5 c250 3 457 4
459 3 1 -1 48 -188 102 -415 55 -227 104 -423 109 -435 8 -20 17 -23 70 -23
74 0 100 12 100 46 0 13 -47 213 -105 444 -58 231 -105 424 -105 429 0 5 24
21 54 34 125 58 286 193 371 312 59 82 111 189 137 282 31 111 32 289 1 388
-46 144 -136 257 -260 322 -123 66 -124 66 -699 71 -491 3 -521 2 -541 -15z
m1021 -163 c179 -26 298 -150 327 -342 17 -105 -7 -242 -61 -354 -99 -205
-334 -370 -574 -403 -87 -12 -813 -15 -819 -3 -2 4 49 255 114 557 65 303 118
551 118 553 2 7 838 0 895 -8z"/>
<path d="M19643 2358 c-13 -6 -25 -18 -27 -27 -3 -9 -73 -335 -157 -726 l-152
-710 0 -140 c0 -112 4 -156 21 -218 41 -148 132 -287 245 -373 349 -264 906
-197 1290 157 143 131 271 330 331 514 18 56 326 1473 326 1501 0 1 -7 10 -16
18 -17 18 -88 21 -127 7 -15 -6 -29 -23 -36 -43 -6 -18 -76 -341 -155 -718
-80 -377 -154 -710 -164 -741 -81 -233 -267 -440 -515 -569 -360 -188 -729
-142 -912 114 -88 124 -128 295 -106 456 6 46 76 390 156 765 80 374 145 692
145 707 0 14 -7 29 -16 32 -25 9 -107 6 -131 -6z"/>
<path d="M23944 2360 c-22 -9 -37 -44 -49 -112 -6 -30 -3 -38 13 -47 14 -7
144 -11 392 -11 349 0 371 -1 366 -17 -22 -75 -447 -2106 -442 -2118 4 -12 23
-15 80 -15 67 0 77 2 90 23 8 12 115 495 238 1074 l223 1052 383 3 c435 3 399
-5 421 93 10 44 10 59 1 70 -11 13 -130 15 -854 14 -462 0 -851 -4 -862 -9z"/>
<path d="M5696 2338 c-24 -37 -491 -2258 -479 -2277 9 -14 60 -16 494 -16
l484 0 112 27 c292 70 531 205 753 428 283 282 423 593 422 935 0 189 -42 337
-138 492 -64 103 -197 234 -302 297 -91 54 -242 110 -342 125 -38 7 -257 11
-527 11 l-463 0 -14 -22z m938 -418 c196 -50 323 -173 373 -361 37 -141 13
-372 -56 -522 -126 -278 -433 -514 -737 -566 -43 -8 -145 -11 -270 -9 l-200 3
153 725 c84 399 155 731 158 738 3 9 63 12 253 12 215 0 259 -3 326 -20z"/>
<path d="M8137 2342 c-19 -21 -489 -2219 -485 -2267 l3 -30 805 -3 c443 -1
815 0 827 3 33 8 39 26 79 215 28 136 33 174 24 185 -11 13 -99 15 -611 15
-330 0 -599 2 -599 5 0 2 27 132 60 287 33 155 60 283 60 285 0 2 202 3 449 3
l450 0 25 23 c20 18 30 48 56 176 36 173 39 199 19 212 -8 5 -216 9 -462 9
-422 0 -448 1 -443 18 6 23 96 446 96 455 0 4 263 7 584 7 541 0 585 1 605 18
16 13 29 55 57 193 20 98 34 184 31 193 -6 14 -83 16 -810 16 -763 0 -805 -1
-820 -18z"/>
<path d="M10206 2341 c-24 -26 -17 6 -271 -1198 -186 -877 -225 -1076 -215
-1088 11 -13 103 -15 734 -15 l723 0 20 22 c15 17 31 70 57 196 20 95 36 175
36 177 0 2 -7 11 -16 19 -14 14 -75 16 -520 16 -397 0 -504 3 -504 13 0 6 88
423 194 926 142 668 192 920 185 933 -9 16 -27 18 -208 18 -182 0 -199 -2
-215 -19z"/>
<path d="M11557 2338 c-18 -30 -79 -319 -75 -355 l3 -28 318 -3 c293 -2 317
-4 317 -20 0 -9 -88 -432 -196 -940 -158 -743 -194 -925 -184 -937 17 -21 397
-22 425 -1 19 14 18 6 286 1269 l133 627 326 0 c300 0 328 1 343 18 20 21 91
345 82 372 -6 20 -21 20 -885 20 l-880 0 -13 -22z"/>
<path d="M13989 2336 c-17 -18 -1367 -2201 -1397 -2259 -2 -4 2 -14 8 -22 10
-12 50 -15 217 -15 113 0 212 4 223 10 10 5 75 102 145 215 l127 205 484 0
c276 0 484 -4 484 -9 0 -43 75 -390 87 -403 14 -16 38 -18 208 -18 171 0 194
2 208 18 15 16 5 77 -128 777 -78 418 -173 922 -210 1120 -37 198 -74 370 -81
383 -14 21 -19 22 -183 22 -165 0 -169 0 -192 -24z m155 -1016 c36 -234 66
-431 66 -437 0 -10 -73 -13 -330 -13 -181 0 -330 3 -330 7 0 15 515 882 521
875 3 -4 36 -198 73 -432z"/>
</g>
</svg>
